{"title":"Transylmania 2009 720p BRRip.x264.Feel-Free","uid":6107381,"size":1907823901,"categoryP":"video","categoryS":"hd___movies","magnet":"?xt=urn:btih:5b6030499added5ff0ddc76261344bc2ac0382c9&amp;dn=Transylmania+2009+720p+BRRip.x264.Feel-Free&amp;tr=udp%3A%2F%2Ftracker.openbittorrent.com%3A80&amp;tr=udp%3A%2F%2Fopen.demonii.com%3A1337&amp;tr=udp%3A%2F%2Ftracker.coppersurfer.tk%3A6969&amp;tr=udp%3A%2F%2Fexodus.desync.com%3A6969","seeders":0,"leechers":3,"uploader":"neon","files":-1,"time":1295214546,"description":"Genre:Comedy | Horror \nLanguage:English\n &lt;a href=&quot; http://www.imdb.com/title/tt0936471/&quot; rel=&quot;nofollow&quot; target=&quot;_NEW&quot;&gt; http://www.imdb.com/title/tt0936471/&lt;/a&gt;\nSource:1080p.BluRay.x264-SWAGGERHD\n\n\nFormat                           : Matroska\nFile size                        : 1.77 GiB\nDuration                         : 1h 36mn\nOverall bit rate                 : 2 628 Kbps\n\n\nVideo\nFormat settings, CABAC           : Yes\nFormat settings, ReFrames        : 4 frames\nCodec ID                         : V_MPEG4/ISO/AVC\nDuration                         : 1h 36mn\nBit rate                         : 2 300 Kbps\nWidth                            : 1 280 pixels\nHeight                           : 720 pixels\nDisplay aspect ratio             : 16:9\nFrame rate mode                  : Variable\nFrame rate                       : 23.976 fps\nColor space                      : YUV\nChroma subsampling               : 4:2:0\nBit depth                        : 8 bits\nScan type                        : Progressive\nBits/(Pixel*Frame)               : 0.104\nStream size                      : 1.48 GiB (83%)\nWriting library                  : x264 core 106 r1732 b20059a\n\nAudio\nID                               : 2\nFormat                           : AC-3\nFormat/Info                      : Audio Coding 3\nMode extension                   : CM (complete main)\nCodec ID                         : A_AC3\nDuration                         : 1h 36mn\nBit rate mode                    : Constant\nBit rate                         : 384 Kbps\nChannel(s)                       : 6 channels\nChannel positions                : Front: L C R, Side: L R, LFE\nSampling rate                    : 48.0 KHz\nBit depth                        : 16 bits\nVideo delay                      : -1mn 5s\nStream size                      : 265 MiB (15%)\nLanguage                         : English\n\n   \nPlot:\n Spoof horror in which a group of college kids do a semester abroad in Romania and realise that if the partying doesn't kill them, the vampires just might!\n &lt;a href=&quot;\nhttp://shareimage.org/images/tunh3p3uawk9h2m1edqg.png&quot; rel=&quot;nofollow&quot; target=&quot;_NEW&quot;&gt;\nhttp://shareimage.org/images/tunh3p3uawk9h2m1edqg.png&lt;/a&gt; &lt;a href=&quot;\nhttp://shareimage.org/images/jxqvdsvemr3op2kmy5hf.png&quot; rel=&quot;nofollow&quot; target=&quot;_NEW&quot;&gt;\nhttp://shareimage.org/images/jxqvdsvemr3op2kmy5hf.png&lt;/a&gt; &lt;a href=&quot;\nhttp://shareimage.org/images/964k0wtl6hnyb2tkii9.png&quot; rel=&quot;nofollow&quot; target=&quot;_NEW&quot;&gt;\nhttp://shareimage.org/images/964k0wtl6hnyb2tkii9.png&lt;/a&gt;","torrent":{"xt":"urn:btih:5b6030499added5ff0ddc76261344bc2ac0382c9","amp;dn":"Transylmania+2009+720p+BRRip.x264.Feel-Free","amp;tr":["udp%3A%2F%2Ftracker.openbittorrent.com%3A80","udp%3A%2F%2Fopen.demonii.com%3A1337","udp%3A%2F%2Ftracker.coppersurfer.tk%3A6969","udp%3A%2F%2Fexodus.desync.com%3A6969"],"infoHash":"5b6030499added5ff0ddc76261344bc2ac0382c9","infoHashBuffer":{"type":"Buffer","data":[91,96,48,73,154,221,237,95,240,221,199,98,97,52,75,194,172,3,130,201]},"announce":[],"urlList":[]}}